# xmcd
#
# Track frame offsets: 
#        150
#        12484
#        24600
#        37485
#        50450
#        59902
#        74592
#        86360
#        94925
#        106530
#        117814
#        129839
#        141239
#        153956
#        166308
#        177271
#        187966
#        199056
#        210621
#        225211
#        234724
#        245703
#        256923
#
# Disc length: 3600 seconds
#
# Revision: 0
# Processed by: cddbd v1.5.2PL0 Copyright (c) Steve Scherf et al.
# Submitted via: ExactAudioCopy v0.99pb3
#
DISCID=410e0e17
DTITLE=Sam Cooke - Sam Cooke 23 Most Requested Songs
DYEAR=1900
DGENRE=Soul
TTITLE0=You Send Me
TTITLE1=Bring It On Home To Me
TTITLE2=Little Red Rooster
TTITLE3=You Were Made For Me
TTITLE4=Wonderful World
TTITLE5=(I Love You) For Sentimental Reasons
TTITLE6=Nothing Can Change This Love
TTITLE7=Only Sixteen
TTITLE8=Chain Gang
TTITLE9=Cupid
TTITLE10=Twistin' The Night Away
TTITLE11=Another Saturday Night
TTITLE12=Shake
TTITLE13=Send Me Some Lovin'
TTITLE14=Having A Party
TTITLE15=Summertime (From Porgy and Bess)
TTITLE16=Dream Lover
TTITLE17=Working On The Chain Gang
TTITLE18=A Change Is Gonna Come
TTITLE19=Don't Know Much About History
TTITLE20=Steal Away
TTITLE21=Save The Last Dance For Me
TTITLE22=Stand By Me
EXTD=
EXTT0=
EXTT1=
EXTT2=
EXTT3=
EXTT4=
EXTT5=
EXTT6=
EXTT7=
EXTT8=
EXTT9=
EXTT10=
EXTT11=
EXTT12=
EXTT13=
EXTT14=
EXTT15=
EXTT16=
EXTT17=
EXTT18=
EXTT19=
EXTT20=
EXTT21=
EXTT22=
PLAYORDER=
